<?xml version="1.0" standalone="no"?>
<!DOCTYPE svg PUBLIC "-//W3C//DTD SVG 20010904//EN"
 "http://www.w3.org/TR/2001/REC-SVG-20010904/DTD/svg10.dtd">
<svg version="1.0" xmlns="http://www.w3.org/2000/svg"
 width="1280.000000pt" height="1101.000000pt" viewBox="0 0 1280.000000 1101.000000"
 preserveAspectRatio="xMidYMid meet">
<g transform="translate(0.000000,1101.000000) scale(0.100000,-0.100000)"
fill="#000000" stroke="none">
<path d="M3750 10978 c-17 -28 -26 -33 -57 -33 -59 0 -65 -23 -73 -270 -4
-115 -10 -218 -14 -227 -13 -29 -65 -22 -126 16 -30 19 -75 47 -99 62 -66 41
-164 37 -146 -7 3 -8 43 -41 88 -74 121 -89 265 -237 307 -315 l35 -65 -1
-170 c-3 -314 -45 -538 -214 -1145 -78 -280 -106 -406 -115 -520 -15 -181 -70
-387 -172 -645 -80 -203 -210 -454 -291 -560 -162 -213 -360 -567 -421 -751
-33 -99 -37 -164 -16 -261 9 -38 -11 -52 -73 -51 -35 0 -45 -5 -69 -33 -15
-19 -50 -57 -78 -85 -42 -43 -59 -54 -105 -63 -103 -21 -205 21 -237 96 -7 18
-20 33 -29 33 -27 0 -94 61 -94 86 0 22 -45 64 -69 64 -13 0 -71 62 -71 77 0
15 -176 194 -213 217 -15 9 -37 31 -49 49 -47 73 -147 118 -268 121 -49 1 -78
8 -117 29 -29 15 -63 27 -77 27 -13 0 -53 9 -88 20 -92 29 -119 26 -198 -20
-38 -22 -73 -40 -78 -40 -5 0 -17 -11 -25 -24 -9 -12 -50 -40 -92 -60 -99 -46
-164 -101 -200 -168 -16 -29 -46 -74 -66 -100 -46 -58 -73 -128 -88 -228 -17
-109 -19 -117 -37 -135 -15 -15 -15 -17 0 -34 9 -10 21 -35 27 -55 5 -19 20
-48 32 -63 25 -30 82 -151 93 -196 3 -15 18 -36 32 -45 13 -9 48 -37 76 -62
52 -46 108 -75 204 -105 30 -10 57 -25 63 -37 8 -14 17 -18 33 -14 14 3 58 -8
111 -29 49 -19 100 -35 115 -35 15 0 54 -14 87 -30 51 -25 64 -37 77 -70 25
-63 21 -95 -19 -139 -29 -32 -35 -44 -29 -66 4 -15 20 -35 35 -44 21 -12 33
-30 44 -67 8 -28 24 -63 36 -78 12 -16 30 -58 40 -93 17 -64 17 -68 -6 -192
-28 -149 -45 -296 -45 -382 0 -42 -5 -68 -15 -79 -18 -20 -48 -127 -40 -141 4
-5 19 1 36 13 22 16 44 22 87 22 49 1 64 6 93 30 19 16 41 43 49 60 11 22 22
31 40 31 24 0 25 3 24 65 -1 82 -30 327 -45 383 -6 23 -20 60 -32 82 -31 62
-51 190 -36 242 9 32 9 54 0 87 -10 40 -8 52 18 122 15 43 33 80 40 82 6 2 16
-11 23 -29 l11 -32 19 36 c17 34 22 37 63 37 24 0 89 5 144 11 136 16 132 19
124 -130 l-6 -117 25 -16 c14 -9 37 -41 52 -69 32 -65 34 -129 7 -237 -53
-209 -53 -416 -2 -687 39 -201 77 -462 92 -628 18 -197 6 -507 -26 -687 -49
-271 -45 -455 16 -765 91 -469 124 -873 80 -971 -29 -63 -60 -79 -200 -103
-94 -16 -147 -20 -215 -15 l-91 6 -125 -72 c-69 -40 -141 -89 -161 -110 -23
-25 -51 -42 -80 -50 -76 -21 -82 -26 -64 -60 13 -25 13 -30 0 -44 -8 -8 -24
-17 -34 -21 -26 -8 -33 -31 -14 -46 12 -11 30 -10 97 5 129 29 146 30 146 13
0 -8 -18 -27 -41 -42 -49 -35 -64 -59 -45 -74 20 -17 79 -1 282 74 304 114
357 118 310 27 -10 -19 -12 -39 -7 -62 7 -32 10 -35 42 -34 37 1 82 26 260
145 64 42 126 80 137 83 56 18 109 275 176 846 64 541 159 1704 198 2403 7
125 15 232 19 238 11 19 78 -2 120 -37 27 -23 51 -34 72 -34 38 0 106 -21 165
-50 23 -11 73 -28 110 -37 37 -9 90 -26 117 -39 28 -13 67 -24 86 -24 26 0 41
-6 50 -21 12 -17 19 -19 39 -11 24 9 71 -4 175 -49 11 -5 61 -20 110 -34 180
-52 336 -133 488 -256 46 -36 168 -156 272 -265 497 -521 633 -642 920 -819
346 -213 564 -290 1180 -416 363 -74 348 -71 565 -104 246 -37 591 -107 815
-165 244 -63 465 -135 845 -275 641 -237 951 -314 1575 -390 116 -15 282 -39
370 -55 265 -48 293 -52 313 -39 25 16 63 5 101 -27 36 -30 37 -39 11 -122
-11 -35 -17 -74 -14 -88 10 -41 24 -27 24 26 0 99 47 137 63 50 4 -25 10 -69
12 -98 2 -29 7 -58 12 -65 5 -7 15 -26 22 -44 17 -43 38 -60 54 -44 9 9 7 26
-11 74 l-23 62 21 17 c11 9 20 24 20 32 0 30 30 29 93 -4 107 -56 148 -106
181 -222 20 -67 65 -137 111 -172 18 -14 37 -35 40 -46 6 -19 15 -20 128 -20
l122 0 20 37 c11 20 34 51 50 69 17 18 37 45 44 61 31 64 46 89 73 117 16 16
45 60 64 97 19 38 41 69 48 69 18 0 59 -49 99 -120 38 -65 77 -89 154 -97 32
-3 63 -10 69 -14 7 -6 31 1 62 18 41 22 68 50 132 137 90 120 126 187 159 288
26 83 26 103 0 184 -43 132 -112 186 -288 223 -116 26 -178 54 -259 120 -49
39 -82 56 -147 76 -47 15 -90 34 -97 44 -8 11 -27 18 -52 19 -46 2 -90 15
-148 46 -33 17 -49 20 -68 13 -27 -10 -36 -7 -162 58 -37 19 -69 42 -73 53 -6
20 -117 72 -153 72 -10 0 -59 32 -108 70 -49 39 -127 89 -173 111 -46 22 -118
66 -160 98 -42 32 -139 96 -216 143 -77 47 -213 130 -302 186 -482 299 -838
474 -1138 557 -325 91 -459 146 -634 263 -47 32 -347 253 -666 492 -745 557
-766 571 -1120 745 -545 267 -1248 475 -1610 475 -64 0 -104 5 -140 19 -27 11
-81 29 -120 41 -134 40 -339 181 -463 317 -122 136 -334 343 -367 360 -16 8
-60 46 -96 83 -37 38 -105 93 -150 123 -101 65 -301 267 -377 380 -129 193
-127 323 7 692 66 179 281 913 346 1179 14 59 39 132 55 160 34 60 35 65 75
671 69 1047 85 1198 146 1376 49 144 58 226 36 312 -9 34 -26 109 -37 166 -24
119 -43 164 -68 159 -15 -3 -17 -18 -18 -105 0 -158 -22 -156 -53 5 -21 109
-61 211 -83 213 -7 1 -23 0 -35 0 -22 -2 -26 5 -38 74 -6 39 -29 75 -47 75 -4
0 -17 -15 -28 -32z m5111 -8973 c135 -35 321 -100 407 -142 70 -34 93 -55 78
-70 -16 -16 -374 83 -521 144 -63 26 -125 68 -125 84 0 16 62 10 161 -16z
m1365 -521 c116 -33 385 -135 654 -246 155 -65 222 -88 242 -84 18 3 37 -2 60
-17 50 -34 47 -50 -15 -81 -65 -31 -59 -31 -140 -6 -54 17 -69 26 -90 59 -19
28 -36 41 -59 46 -18 3 -64 17 -103 30 -38 13 -89 28 -112 34 -22 6 -63 26
-90 44 -26 19 -61 37 -78 41 -81 20 -372 146 -412 178 -7 6 -10 14 -7 19 9 15
59 10 150 -17z m874 -950 c15 -37 12 -64 -6 -71 -20 -8 -34 13 -34 53 0 50 24
61 40 18z"/>
</g>
</svg>
